<?xml version="1.0" standalone="no"?>
<!DOCTYPE svg PUBLIC "-//W3C//DTD SVG 20010904//EN"
 "http://www.w3.org/TR/2001/REC-SVG-20010904/DTD/svg10.dtd">
<svg version="1.0" xmlns="http://www.w3.org/2000/svg"
 width="400.000000pt" height="400.000000pt" viewBox="0 0 400.000000 400.000000"
 preserveAspectRatio="xMidYMid meet">
<metadata>
Created by potrace 1.14, written by Peter Selinger 2001-2017
</metadata>
<g transform="translate(0.000000,400.000000) scale(0.100000,-0.100000)"
fill="#000000" stroke="none">
<path d="M1826 3975 c-9 -13 -16 -27 -16 -30 0 -10 -27 -35 -37 -35 -5 0 -10
-11 -11 -25 -3 -47 -5 -54 -13 -49 -5 2 -6 11 -2 19 8 23 -27 18 -49 -7 -13
-15 -15 -24 -7 -29 8 -5 5 -13 -10 -25 -11 -10 -21 -25 -21 -32 0 -8 -6 -12
-15 -8 -17 6 -20 -5 -5 -20 8 -8 6 -15 -5 -24 -13 -11 -15 -9 -15 14 0 14 -4
26 -8 26 -5 0 -8 -16 -8 -35 1 -19 -3 -34 -9 -34 -5 0 -9 7 -7 15 2 8 -2 14
-8 14 -5 0 -10 -5 -10 -11 0 -5 -6 -7 -12 -3 -10 6 -10 4 0 -7 6 -7 12 -17 12
-22 0 -4 -6 -5 -12 -1 -8 5 -7 0 2 -11 8 -10 10 -16 4 -12 -12 7 -43 -21 -43
-38 0 -5 -5 -12 -13 -15 -21 -8 -22 -34 -1 -26 14 6 15 4 6 -5 -6 -6 -17 -8
-25 -3 -20 13 -50 15 -43 4 3 -5 -1 -10 -9 -10 -19 0 -20 -11 -3 -29 10 -11 9
-13 -1 -7 -7 4 -14 0 -18 -11 -3 -10 -10 -26 -15 -37 -8 -14 -7 -16 3 -11 10
7 11 5 0 -6 -7 -7 -25 -13 -40 -14 -15 0 -27 -5 -27 -12 0 -6 -4 -15 -9 -20
-5 -4 -7 -3 -3 2 10 18 -7 35 -23 25 -13 -8 -12 -10 3 -10 9 0 16 -6 15 -12
-2 -10 159 -14 770 -18 529 -3 775 -8 780 -16 4 -5 46 -63 95 -127 48 -64 87
-119 87 -122 0 -3 -6 -5 -12 -4 -19 3 -87 -12 -92 -20 -3 -4 4 -40 15 -81 10
-40 19 -79 19 -86 0 -6 -29 -54 -64 -107 -35 -53 -65 -99 -67 -104 -2 -4 -35
-54 -74 -111 -38 -57 -74 -111 -80 -120 -5 -9 -25 -38 -43 -64 -30 -43 -37
-48 -72 -48 l-39 0 50 143 c27 78 56 160 64 182 7 22 30 85 50 140 30 84 35
108 30 150 l-6 50 -94 2 -93 2 -58 -59 c-63 -65 -58 -51 -229 -585 -27 -82
-74 -229 -105 -325 -31 -96 -77 -237 -101 -312 -24 -76 -46 -138 -49 -138 -3
0 -38 102 -78 228 -41 125 -80 243 -87 262 -7 19 -34 103 -60 185 -26 83 -53
166 -60 185 -8 19 -19 55 -25 79 -6 24 -15 51 -20 60 -4 9 -29 81 -55 161 -45
138 -50 147 -104 203 -31 32 -68 65 -83 73 -20 10 -176 44 -205 44 -18 0 36
-179 73 -243 19 -32 34 -60 34 -62 0 -1 38 -70 83 -151 107 -191 133 -237 169
-304 17 -30 47 -84 68 -120 20 -36 52 -92 70 -125 18 -33 47 -87 65 -120 18
-33 58 -104 89 -159 31 -54 56 -101 56 -103 0 -3 9 -18 21 -34 28 -40 11 -37
-26 5 -16 19 -52 58 -80 88 -203 218 -275 297 -275 304 0 8 -31 90 -56 149 -7
17 -18 44 -24 60 -30 82 -33 85 -73 85 -40 0 -40 0 -6 -50 9 -14 34 -52 54
-85 21 -33 46 -72 56 -87 29 -42 22 -54 -8 -17 -16 19 -44 50 -63 70 -39 42
-64 68 -200 218 -52 58 -111 121 -130 142 -19 20 -69 74 -110 119 -41 46 -94
103 -117 129 -34 37 -43 54 -43 84 l0 37 83 0 84 0 16 58 c9 31 19 74 22 94
l6 37 -59 -2 -58 -2 53 73 c30 39 50 72 46 72 -7 0 -103 -123 -111 -143 -2 -4
-17 -22 -34 -40 -31 -33 -58 -83 -54 -101 2 -6 1 -8 -1 -3 -3 4 -9 7 -14 7 -6
0 -8 -4 -4 -9 3 -5 0 -13 -6 -16 -5 -4 -8 -13 -5 -21 3 -8 1 -14 -5 -14 -6 0
-8 -4 -5 -9 9 -13 -20 -21 -32 -9 -8 8 -13 7 -18 -5 -3 -9 -10 -17 -16 -17 -5
0 -6 6 -2 13 4 7 3 9 -2 4 -5 -5 -9 -14 -9 -20 0 -7 -5 -12 -12 -12 -6 0 -15
-3 -19 -7 -4 -5 -1 -8 7 -8 8 0 4 -6 -9 -16 -12 -8 -22 -24 -22 -35 0 -10 -7
-19 -15 -19 -8 0 -14 -5 -13 -11 2 -7 -11 -13 -29 -14 -18 -1 -30 2 -27 7 3 5
9 6 14 3 4 -3 13 2 20 10 9 11 8 14 -9 12 -12 -1 -21 -5 -21 -10 0 -4 -6 -5
-13 -1 -6 4 -9 4 -5 -1 4 -4 1 -20 -7 -35 -8 -15 -11 -31 -7 -35 4 -5 2 -5 -4
-2 -14 8 -37 -17 -26 -28 4 -5 2 -5 -5 -2 -6 4 -14 1 -16 -5 -4 -10 -6 -10 -6
0 -1 6 -6 12 -13 12 -6 0 -8 -3 -5 -6 10 -11 -12 -44 -26 -38 -7 2 -23 -6 -34
-18 -22 -23 -23 -26 -23 -53 0 -8 -4 -15 -10 -15 -5 0 -7 7 -4 15 9 22 -5 18
-28 -7 -11 -13 -16 -17 -12 -9 4 9 2 12 -7 9 -8 -3 -14 -12 -14 -20 0 -9 -8
-25 -18 -35 -9 -11 -17 -24 -17 -30 0 -5 -7 -10 -15 -10 -12 0 -12 3 -3 16 7
9 8 13 4 9 -5 -4 -15 -3 -22 2 -9 8 -12 6 -10 -7 0 -10 -6 -18 -14 -19 -43 -3
-43 -3 -30 -19 7 -8 10 -16 6 -16 -3 -1 -10 -2 -15 -3 -13 -2 -26 -16 -26 -29
0 -7 -13 -12 -28 -11 -15 1 -27 -3 -27 -7 0 -5 -7 -6 -15 -2 -10 3 -15 0 -13
-8 2 -8 -2 -13 -7 -12 -6 1 -12 -8 -12 -20 -1 -12 -8 -26 -16 -32 -8 -5 -16
-17 -20 -25 -4 -10 -6 -8 -6 8 -1 12 -5 22 -11 22 -7 0 -10 -393 -10 -1160 l0
-1160 2000 0 2000 0 0 2000 0 2000 -1079 0 -1079 -1 -16 -24z m-99 -128 c0 -8
-6 -14 -14 -14 -9 0 -10 4 -2 14 6 7 12 13 14 13 1 0 2 -6 2 -13z m-935 -952
c2 3 5 -1 5 -8 0 -6 -13 -12 -27 -12 -24 -1 -26 2 -17 17 7 11 15 14 23 8 6
-6 13 -8 16 -5z m-28 -43 c3 -5 -1 -9 -9 -9 -8 0 -12 4 -9 9 3 4 7 8 9 8 2 0
6 -4 9 -8z m1400 -989 c0 -16 -2 -37 -2 -48 -1 -11 -14 -34 -29 -50 -16 -16
-43 -47 -60 -68 -44 -52 -41 -39 10 50 23 41 50 90 60 109 9 19 18 34 20 34 1
0 2 -12 1 -27z m-375 -510 c11 -23 10 -29 -6 -40 -9 -8 -24 -12 -33 -11 -22 5
-25 49 -4 65 25 18 29 17 43 -14z m1031 -34 c9 -15 8 -24 -1 -35 -19 -24 -39
-17 -39 14 0 46 21 57 40 21z m-64 -54 c-7 -34 -6 -35 25 -35 30 0 31 -1 17
-17 -20 -23 -30 -153 -12 -153 7 0 17 23 23 51 22 100 92 153 197 147 30 -2
54 -7 54 -12 0 -5 6 -17 14 -25 15 -17 19 -41 17 -103 -1 -37 -2 -38 -38 -39
-21 0 -32 -3 -25 -6 18 -7 14 -34 -9 -60 -16 -16 -19 -26 -12 -35 6 -7 16 -32
23 -55 11 -35 10 -51 -5 -108 -10 -36 -22 -68 -27 -71 -4 -3 -8 -20 -8 -38 0
-58 -16 -63 -139 -48 -93 13 -116 32 -116 100 1 26 4 64 8 85 l8 37 58 0 59 0
-9 -37 c-12 -55 -11 -63 10 -63 59 0 53 80 -13 169 -25 35 -46 69 -46 77 0 10
-15 15 -52 16 -90 3 -163 -4 -170 -16 -13 -20 -9 -56 7 -56 8 0 15 9 15 20 0
18 7 20 71 20 l71 0 -6 -37 c-11 -66 -57 -267 -67 -291 -12 -31 -53 -27 -57 6
l-4 24 -23 -22 c-25 -24 -96 -37 -139 -26 -17 4 -26 15 -31 35 -4 20 -11 28
-21 24 -18 -7 -18 7 1 21 9 7 15 34 18 77 1 37 8 73 14 80 6 8 15 40 20 72 9
51 8 57 -7 57 -13 0 -20 -14 -29 -57 -31 -161 -53 -223 -94 -263 -42 -43 -83
-56 -148 -47 -77 10 -101 62 -81 171 9 45 9 62 1 65 -6 2 -19 11 -28 20 -9 9
-25 16 -36 16 -33 0 -24 30 10 31 50 3 90 19 93 38 4 17 -2 18 -65 11 -37 -4
-71 -12 -74 -17 -4 -6 -12 -38 -19 -72 -6 -34 -18 -82 -25 -108 l-14 -48 61 0
60 0 -7 -47 c-4 -27 -9 -51 -12 -55 -2 -5 -56 -8 -119 -8 l-114 0 0 26 c0 15
11 74 25 133 47 195 45 181 26 181 -38 -1 -46 -14 -91 -155 -12 -38 -16 -63
-10 -69 15 -15 12 -36 -5 -36 -8 0 -24 -18 -35 -40 l-20 -40 -81 0 -82 0 7 49
c5 35 3 51 -6 54 -10 4 -9 9 4 19 23 19 37 176 17 189 -27 17 -37 9 -55 -41
-14 -40 -22 -50 -41 -50 -14 0 -23 6 -23 15 0 22 -47 19 -54 -2 -3 -10 -8 -39
-12 -65 l-6 -48 59 0 60 0 -16 -60 -16 -60 -122 0 c-68 0 -123 3 -123 8 0 8
23 94 34 130 6 17 4 22 -11 22 -12 0 -26 -18 -42 -56 -36 -82 -78 -104 -204
-104 l-97 0 0 28 c0 16 6 50 14 75 8 26 10 47 5 47 -15 0 -10 40 5 46 12 4 10
12 -9 40 -13 19 -29 51 -35 70 -10 29 -9 39 9 67 20 32 57 57 86 57 14 0 41
77 47 135 l3 30 106 0 c113 0 126 -5 158 -55 24 -37 44 -31 56 15 l11 40 117
3 117 3 -1 -33 c-2 -74 -9 -83 -74 -88 l-59 -5 -12 -41 c-12 -40 -11 -42 12
-53 33 -15 71 -14 78 2 5 10 7 10 12 0 7 -15 44 -17 44 -3 0 6 -8 10 -17 10
-17 1 -17 2 1 15 13 10 21 37 30 102 l12 88 58 3 58 3 -8 -57 c-5 -43 -3 -59
7 -66 11 -8 10 -9 -3 -4 -16 5 -18 -2 -18 -44 0 -84 23 -62 62 58 l35 107 48
3 c26 2 51 0 56 -5 4 -4 -7 -53 -26 -107 -19 -55 -35 -101 -35 -103 0 -2 11
-3 23 -3 22 0 26 9 45 88 12 48 22 96 22 105 0 14 10 17 60 17 69 0 70 -2 46
-86 -8 -27 -16 -64 -20 -81 l-5 -33 69 0 69 0 10 38 c6 20 11 42 11 48 0 5 14
28 30 51 49 67 135 90 207 56 45 -21 56 -53 48 -130 -4 -41 -3 -63 4 -63 13 0
31 33 31 57 0 11 13 39 29 64 36 57 122 109 181 109 22 0 40 5 40 10 0 6 5 10
11 10 7 0 9 -12 5 -35z m89 -15 c3 -5 -1 -10 -9 -10 -9 0 -16 5 -16 10 0 6 4
10 9 10 6 0 13 -4 16 -10z m-1866 -106 c-8 -10 -16 -11 -30 -3 -24 12 -24 25
-1 38 23 13 48 -15 31 -35z m2586 -64 c-3 -5 -21 -10 -38 -10 -24 0 -28 3 -17
10 20 13 63 13 55 0z m-158 -6 c-3 -3 -12 -4 -19 -1 -8 3 -5 6 6 6 11 1 17 -2
13 -5z m-84 -11 c-7 -2 -21 -2 -30 0 -10 3 -4 5 12 5 17 0 24 -2 18 -5z
m-2454 -197 c26 -42 26 -54 -1 -83 -40 -43 -119 -21 -133 38 -9 36 36 79 82
79 25 0 36 -7 52 -34z m1541 -236 c0 -5 -7 -10 -16 -10 -8 0 -12 5 -9 10 3 6
10 10 16 10 5 0 9 -4 9 -10z m-682 -63 c2 -10 -3 -17 -12 -17 -10 0 -16 9 -16
21 0 24 23 21 28 -4z m1063 13 c24 -13 25 -57 2 -82 -20 -22 -41 -23 -65 -1
-25 22 -23 59 4 77 26 19 33 19 59 6z m-441 -10 c0 -5 -4 -10 -10 -10 -5 0
-10 5 -10 10 0 6 5 10 10 10 6 0 10 -4 10 -10z m-42 -87 c2 -8 -5 -13 -17 -13
-12 0 -21 6 -21 16 0 18 31 15 38 -3z m-48 -73 c0 -21 -24 -28 -35 -10 -8 14
3 30 21 30 8 0 14 -9 14 -20z m990 -180 c0 -5 -5 -10 -11 -10 -5 0 -7 5 -4 10
3 6 8 10 11 10 2 0 4 -4 4 -10z m0 -50 c0 -5 -7 -10 -15 -10 -8 0 -15 5 -15
10 0 6 7 10 15 10 8 0 15 -4 15 -10z"/>
<path d="M2290 1125 c-5 -14 -13 -37 -16 -51 -6 -23 -4 -25 22 -22 25 2 30 8
34 38 4 19 4 41 2 48 -7 21 -32 13 -42 -13z"/>
<path d="M2931 1132 c-15 -28 -3 -61 20 -55 14 4 19 14 19 39 0 38 -22 47 -39
16z"/>
<path d="M1108 1115 c-3 -13 2 -35 12 -50 l17 -25 11 38 c17 55 15 62 -12 62
-17 0 -25 -7 -28 -25z"/>
<path d="M2610 1115 c-17 -45 -13 -57 18 -53 24 3 27 7 27 38 0 45 -30 55 -45
15z"/>
<path d="M2281 1022 l-23 -4 22 -15 c23 -16 34 -13 28 9 -2 7 -13 12 -27 10z"/>
<path d="M1071 949 c-6 -18 -11 -44 -11 -59 0 -15 -7 -47 -15 -70 -18 -51 -14
-57 21 -41 24 10 26 16 21 51 -3 22 -2 38 3 35 12 -7 19 47 9 67 -5 9 -6 24
-3 32 3 9 2 16 -4 16 -6 0 -15 -14 -21 -31z"/>
<path d="M1686 958 c-3 -13 -5 -32 -5 -43 1 -11 5 -2 10 19 10 42 6 62 -5 24z"/>
<path d="M2555 890 c-4 -6 -9 -35 -12 -65 -5 -45 -3 -55 9 -55 25 0 47 34 57
83 8 47 8 47 -20 47 -15 0 -31 -5 -34 -10z"/>
<path d="M2232 822 c-17 -3 -22 -9 -20 -25 5 -33 36 -34 44 -2 8 30 6 32 -24
27z"/>
<path d="M1470 3591 c0 -6 4 -13 10 -16 6 -3 7 1 4 9 -7 18 -14 21 -14 7z"/>
<path d="M1105 3360 c-16 -17 -16 -20 -3 -15 9 4 19 13 22 21 7 19 2 18 -19
-6z"/>
<path d="M1075 3316 c-23 -25 -26 -40 -4 -19 12 12 21 24 18 27 -2 2 -9 -1
-14 -8z"/>
<path d="M1780 2917 c0 -30 41 -202 50 -211 10 -10 87 -9 104 1 11 8 177 6
199 -1 9 -3 23 -8 30 -10 9 -3 18 20 30 78 25 119 24 136 -12 136 -16 0 -37
-7 -45 -16 -12 -12 -38 -15 -108 -15 -57 0 -94 4 -96 10 -2 6 -22 14 -45 19
l-42 7 60 6 c55 5 52 6 -32 7 -71 2 -93 -1 -93 -11z"/>
<path d="M2138 2923 c18 -2 45 -2 60 0 15 2 0 4 -33 4 -33 0 -45 -2 -27 -4z"/>
</g>
</svg>
